<svg width="121" height="40" viewBox="0 0 121 40" fill="none" xmlns="http://www.w3.org/2000/svg">
<g clip-path="url(#clip0_1129_28)">
<path d="M110.7 0.00013H10.0996C9.73292 0.00013 9.37062 0.00013 9.00489 0.00213C8.69874 0.00413 8.39503 0.00994 8.08594 0.01483C7.41445 0.0227318 6.74455 0.0818063 6.08204 0.19154C5.42047 0.303663 4.77961 0.515046 4.18116 0.81854C3.58344 1.1246 3.03729 1.5223 2.56251 1.9972C2.08524 2.47077 1.6874 3.01815 1.38429 3.61829C1.08034 4.21724 0.869582 4.85907 0.759291 5.52161C0.647952 6.18332 0.58804 6.85265 0.580091 7.52361C0.570811 7.83021 0.569831 8.13783 0.564941 8.44447V31.5587C0.569831 31.8692 0.570811 32.17 0.580091 32.4806C0.588042 33.1516 0.647955 33.8209 0.759291 34.4825C0.869277 35.1455 1.08005 35.7877 1.38429 36.3868C1.68727 36.985 2.08516 37.5302 2.56251 38.0011C3.03549 38.4781 3.58199 38.8761 4.18116 39.1798C4.77961 39.4841 5.42039 39.6968 6.08204 39.8106C6.74466 39.9195 7.4145 39.9786 8.08594 39.9874C8.39503 39.9942 8.69874 39.9981 9.00489 39.9981C9.37061 40.0001 9.73294 40.0001 10.0996 40.0001H110.7C111.059 40.0001 111.424 40.0001 111.784 39.9981C112.088 39.9981 112.401 39.9942 112.706 39.9874C113.376 39.9791 114.044 39.92 114.706 39.8106C115.369 39.696 116.012 39.4834 116.614 39.1798C117.212 38.8759 117.758 38.478 118.231 38.0011C118.707 37.5284 119.106 36.9836 119.413 36.3868C119.715 35.7872 119.923 35.1451 120.032 34.4825C120.143 33.8208 120.205 33.1516 120.217 32.4806C120.221 32.17 120.221 31.8692 120.221 31.5587C120.229 31.1954 120.229 30.8341 120.229 30.4649V9.53626C120.229 9.17005 120.229 8.80677 120.221 8.44447C120.221 8.13783 120.221 7.83021 120.217 7.52357C120.205 6.85255 120.143 6.18337 120.032 5.52157C119.923 4.85941 119.714 4.21763 119.413 3.61825C118.795 2.41533 117.817 1.43616 116.614 0.81845C116.012 0.515697 115.369 0.30437 114.706 0.19145C114.044 0.0812328 113.376 0.0221378 112.706 0.01469C112.401 0.00981 112.088 0.00395 111.784 0.002C111.424 0 111.059 0 110.7 0V0.00013Z" fill="#A6A6A6"/>
<path d="M9.00981 39.1251C8.70513 39.1251 8.40781 39.1212 8.10552 39.1144C7.4793 39.1063 6.85455 39.0517 6.23638 38.9513C5.65997 38.852 5.10158 38.6674 4.57964 38.4034C4.06248 38.1416 3.59079 37.7984 3.18264 37.3868C2.76858 36.9801 2.42386 36.5084 2.16213 35.9903C1.89752 35.4689 1.71439 34.91 1.61913 34.3331C1.51625 33.7132 1.46059 33.0864 1.45263 32.4581C1.44629 32.2472 1.43799 31.545 1.43799 31.545V8.44446C1.43799 8.44446 1.44683 7.75305 1.45268 7.54992C1.4603 6.9226 1.51564 6.29678 1.61821 5.67785C1.71365 5.09937 1.89692 4.53887 2.16167 4.01575C2.42243 3.49807 2.76524 3.02598 3.17681 2.6178C3.58791 2.20574 4.06111 1.86073 4.57915 1.59533C5.09989 1.33222 5.65722 1.14885 6.23247 1.05139C6.85267 0.949958 7.47959 0.895118 8.10798 0.887332L9.0103 0.875122H111.779L112.692 0.887822C113.315 0.895221 113.936 0.949572 114.55 1.05041C115.131 1.1491 115.695 1.33374 116.221 1.59826C117.259 2.13311 118.104 2.97929 118.636 4.01819C118.897 4.5377 119.077 5.09363 119.171 5.66711C119.275 6.29111 119.333 6.92186 119.345 7.55432C119.348 7.83752 119.348 8.14172 119.348 8.44446C119.356 8.81946 119.356 9.17639 119.356 9.53625V30.4649C119.356 30.8282 119.356 31.1827 119.348 31.5401C119.348 31.8653 119.348 32.1632 119.344 32.4698C119.333 33.091 119.275 33.7105 119.173 34.3233C119.08 34.9044 118.898 35.4676 118.633 35.9933C118.37 36.5057 118.027 36.9734 117.618 37.379C117.209 37.7928 116.737 38.1381 116.218 38.4015C115.693 38.6675 115.131 38.8529 114.55 38.9513C113.932 39.0523 113.307 39.1068 112.681 39.1144C112.388 39.1212 112.082 39.1251 111.784 39.1251L110.7 39.1271L9.00981 39.1251Z" fill="black"/>
<path d="M25.3339 20.3008C25.3447 19.4662 25.5664 18.6478 25.9784 17.9218C26.3904 17.1959 26.9794 16.5859 27.6905 16.1488C27.2388 15.5036 26.6428 14.9727 25.95 14.5981C25.2572 14.2236 24.4865 14.0157 23.6993 13.9911C22.0201 13.8148 20.3921 14.9959 19.5364 14.9959C18.6642 14.9959 17.3467 14.0086 15.9279 14.0378C15.0103 14.0674 14.1159 14.3343 13.332 14.8123C12.5482 15.2904 11.9015 15.9633 11.455 16.7656C9.52101 20.1141 10.9636 25.0351 12.8162 27.7417C13.7431 29.0671 14.8264 30.5475 16.2438 30.495C17.6309 30.4375 18.1489 29.6105 19.8232 29.6105C21.482 29.6105 21.968 30.495 23.4142 30.4616C24.9026 30.4375 25.8404 29.1304 26.7348 27.7925C27.4007 26.8481 27.9132 25.8044 28.2532 24.7C27.3885 24.3343 26.6505 23.7221 26.1314 22.9398C25.6123 22.1575 25.3349 21.2397 25.3339 20.3008Z" fill="white"/>
<path d="M22.6023 12.211C23.4138 11.2368 23.8136 9.98463 23.7168 8.7204C22.477 8.85062 21.3317 9.44318 20.5092 10.38C20.1071 10.8377 19.7991 11.3701 19.6028 11.9469C19.4066 12.5236 19.3259 13.1334 19.3655 13.7414C19.9856 13.7478 20.5991 13.6134 21.1598 13.3483C21.7205 13.0832 22.2137 12.6943 22.6023 12.211Z" fill="white"/>
<path d="M42.8674 27.1397H38.134L36.9973 30.4962H34.9924L39.4758 18.0782H41.5588L46.0422 30.4962H44.0032L42.8674 27.1397ZM38.6243 25.5909H42.3763L40.5267 20.1436H40.4749L38.6243 25.5909Z" fill="white"/>
<path d="M55.7249 25.9698C55.7249 28.7833 54.219 30.5909 51.9466 30.5909C51.3709 30.621 50.7984 30.4884 50.2946 30.2083C49.7908 29.9281 49.3761 29.5118 49.0979 29.0069H49.0549V33.4913H47.1965V21.4425H48.9954V22.9483H49.0296C49.3205 22.4459 49.7423 22.0317 50.2499 21.7498C50.7575 21.468 51.3321 21.329 51.9124 21.3477C54.2102 21.3477 55.7249 23.1641 55.7249 25.9698ZM53.8147 25.9698C53.8147 24.1368 52.8675 22.9317 51.4221 22.9317C50.0022 22.9317 49.0471 24.1622 49.0471 25.9698C49.0471 27.794 50.0022 29.0157 51.4221 29.0157C52.8675 29.0157 53.8147 27.8194 53.8147 25.9698Z" fill="white"/>
<path d="M65.6897 25.9699C65.6897 28.7833 64.1839 30.591 61.9114 30.591C61.3358 30.6211 60.7633 30.4885 60.2595 30.2083C59.7557 29.9282 59.3409 29.5118 59.0628 29.007H59.0198V33.4913H57.1614V21.4425H58.9602V22.9484H58.9944C59.2853 22.4459 59.7071 22.0317 60.2147 21.7499C60.7223 21.468 61.2969 21.3291 61.8772 21.3478C64.1751 21.3478 65.6897 23.1642 65.6897 25.9699ZM63.7796 25.9699C63.7796 24.1369 62.8323 22.9318 61.387 22.9318C59.9671 22.9318 59.012 24.1623 59.012 25.9699C59.012 27.7941 59.9671 29.0158 61.387 29.0158C62.8323 29.0158 63.7796 27.8195 63.7796 25.9699H63.7796Z" fill="white"/>
<path d="M72.2757 27.0362C72.4134 28.2677 73.6097 29.0762 75.2444 29.0762C76.8108 29.0762 77.9378 28.2677 77.9378 27.1573C77.9378 26.1934 77.2581 25.6163 75.6487 25.2208L74.0393 24.8331C71.7591 24.2823 70.7005 23.2159 70.7005 21.4854C70.7005 19.3428 72.5677 17.8712 75.219 17.8712C77.843 17.8712 79.6419 19.3428 79.7024 21.4854H77.8264C77.7141 20.2462 76.6897 19.4981 75.1926 19.4981C73.6956 19.4981 72.6712 20.255 72.6712 21.3565C72.6712 22.2344 73.3255 22.751 74.926 23.1465L76.2942 23.4825C78.842 24.085 79.9006 25.1085 79.9006 26.9248C79.9006 29.2481 78.05 30.7032 75.1067 30.7032C72.3528 30.7032 70.4934 29.2823 70.3733 27.0362L72.2757 27.0362Z" fill="white"/>
<path d="M83.9114 19.2999V21.4425H85.633V22.9142H83.9114V27.9054C83.9114 28.6808 84.2561 29.0421 85.0129 29.0421C85.2173 29.0386 85.4214 29.0242 85.6243 28.9991V30.462C85.284 30.5256 84.9381 30.5544 84.592 30.5479C82.759 30.5479 82.0442 29.8595 82.0442 28.1036V22.9142H80.7278V21.4425H82.0442V19.2999H83.9114Z" fill="white"/>
<path d="M86.6301 25.9698C86.6301 23.1212 88.3079 21.3312 90.9241 21.3312C93.5491 21.3312 95.219 23.1212 95.219 25.9698C95.219 28.8263 93.5579 30.6085 90.9241 30.6085C88.2912 30.6085 86.6301 28.8263 86.6301 25.9698ZM93.3254 25.9698C93.3254 24.0157 92.4299 22.8624 90.9241 22.8624C89.4182 22.8624 88.5237 24.0245 88.5237 25.9698C88.5237 27.9318 89.4182 29.0763 90.9241 29.0763C92.4299 29.0763 93.3254 27.9318 93.3254 25.9698H93.3254Z" fill="white"/>
<path d="M96.7512 21.4425H98.5237V22.9835H98.5667C98.6866 22.5022 98.9686 22.0769 99.3652 21.779C99.7617 21.4811 100.249 21.3288 100.744 21.3478C100.959 21.347 101.172 21.3703 101.381 21.4171V23.1554C101.111 23.0728 100.829 23.0348 100.546 23.0431C100.276 23.0321 100.007 23.0797 99.7572 23.1826C99.5073 23.2855 99.2827 23.4412 99.0987 23.6391C98.9148 23.837 98.7758 24.0724 98.6914 24.3291C98.6069 24.5857 98.579 24.8576 98.6096 25.1261V30.4962H96.7512L96.7512 21.4425Z" fill="white"/>
<path d="M109.949 27.837C109.699 29.4806 108.099 30.6085 106.051 30.6085C103.417 30.6085 101.782 28.8439 101.782 26.0128C101.782 23.173 103.426 21.3312 105.973 21.3312C108.478 21.3312 110.053 23.0519 110.053 25.797V26.4337H103.658V26.546C103.629 26.8792 103.671 27.2149 103.781 27.5307C103.891 27.8466 104.067 28.1353 104.297 28.3779C104.528 28.6204 104.807 28.8112 105.117 28.9375C105.427 29.0638 105.76 29.1228 106.094 29.1105C106.533 29.1516 106.974 29.0499 107.351 28.8205C107.727 28.591 108.02 28.2461 108.185 27.837L109.949 27.837ZM103.667 25.1349H108.194C108.21 24.8353 108.165 24.5355 108.06 24.2543C107.956 23.9731 107.794 23.7165 107.585 23.5008C107.377 23.285 107.126 23.1147 106.848 23.0004C106.571 22.8862 106.273 22.8306 105.973 22.837C105.67 22.8352 105.37 22.8934 105.09 23.0081C104.81 23.1229 104.556 23.2919 104.341 23.5056C104.127 23.7192 103.957 23.9732 103.841 24.2528C103.726 24.5325 103.666 24.8323 103.667 25.1349V25.1349Z" fill="white"/>
<path d="M38.3911 8.73114C38.7807 8.70318 39.1717 8.76204 39.5358 8.90347C39.8999 9.0449 40.2281 9.26538 40.4967 9.54901C40.7653 9.83263 40.9676 10.1723 41.089 10.5436C41.2104 10.9149 41.2479 11.3085 41.1987 11.696C41.1987 13.6022 40.1685 14.698 38.3911 14.698H36.2358V8.73114H38.3911ZM37.1626 13.8541H38.2876C38.566 13.8708 38.8446 13.8251 39.1031 13.7205C39.3617 13.6159 39.5936 13.455 39.7821 13.2494C39.9706 13.0438 40.1109 12.7988 40.1928 12.5322C40.2746 12.2656 40.296 11.9841 40.2554 11.7081C40.2931 11.4333 40.2695 11.1535 40.1864 10.8889C40.1033 10.6242 39.9627 10.3812 39.7746 10.1773C39.5865 9.97334 39.3557 9.81353 39.0986 9.70929C38.8415 9.60506 38.5646 9.55897 38.2876 9.57435H37.1626V13.8541Z" fill="white"/>
<path d="M42.2456 12.4445C42.2173 12.1486 42.2512 11.85 42.345 11.5679C42.4389 11.2858 42.5906 11.0265 42.7906 10.8065C42.9905 10.5865 43.2342 10.4108 43.5061 10.2905C43.7779 10.1702 44.0719 10.1081 44.3692 10.1081C44.6664 10.1081 44.9604 10.1702 45.2323 10.2905C45.5041 10.4108 45.7478 10.5865 45.9478 10.8065C46.1477 11.0265 46.2995 11.2858 46.3933 11.5679C46.4872 11.85 46.521 12.1486 46.4927 12.4445C46.5216 12.7407 46.4881 13.0397 46.3945 13.3222C46.3009 13.6047 46.1493 13.8645 45.9493 14.085C45.7493 14.3054 45.5054 14.4815 45.2333 14.602C44.9611 14.7226 44.6668 14.7848 44.3692 14.7848C44.0716 14.7848 43.7772 14.7226 43.5051 14.602C43.233 14.4815 42.9891 14.3054 42.7891 14.085C42.5891 13.8645 42.4374 13.6047 42.3438 13.3222C42.2502 13.0397 42.2168 12.7407 42.2456 12.4445ZM45.5786 12.4445C45.5786 11.4684 45.1402 10.8976 44.3706 10.8976C43.5982 10.8976 43.1636 11.4684 43.1636 12.4445C43.1636 13.4284 43.5982 13.9948 44.3706 13.9948C45.1402 13.9948 45.5787 13.4245 45.5787 12.4445H45.5786Z" fill="white"/>
<path d="M52.1382 14.6979H51.2163L50.2856 11.3815H50.2153L49.2886 14.6979H48.3755L47.1343 10.1949H48.0356L48.8423 13.6309H48.9087L49.8345 10.1949H50.687L51.6128 13.6309H51.6831L52.4858 10.1949H53.3745L52.1382 14.6979Z" fill="white"/>
<path d="M54.4185 10.1949H55.2739V10.9103H55.3403C55.453 10.6533 55.643 10.438 55.8839 10.2942C56.1247 10.1504 56.4045 10.0853 56.6841 10.108C56.9032 10.0915 57.1232 10.1246 57.3278 10.2047C57.5324 10.2848 57.7163 10.4099 57.866 10.5707C58.0157 10.7316 58.1273 10.924 58.1925 11.1338C58.2577 11.3437 58.2748 11.5655 58.2427 11.7828V14.6978H57.354V12.006C57.354 11.2823 57.0396 10.9225 56.3823 10.9225C56.2336 10.9155 56.0851 10.9409 55.947 10.9967C55.809 11.0525 55.6846 11.1375 55.5825 11.2459C55.4804 11.3543 55.4029 11.4835 55.3553 11.6246C55.3078 11.7658 55.2914 11.9155 55.3071 12.0636V14.6979H54.4185L54.4185 10.1949Z" fill="white"/>
<path d="M59.6587 8.43713H60.5474V14.6979H59.6587V8.43713Z" fill="white"/>
<path d="M61.7827 12.4445C61.7544 12.1486 61.7883 11.85 61.8822 11.5679C61.976 11.2858 62.1278 11.0265 62.3278 10.8065C62.5277 10.5865 62.7715 10.4107 63.0433 10.2904C63.3152 10.1702 63.6092 10.108 63.9065 10.108C64.2038 10.108 64.4978 10.1702 64.7697 10.2904C65.0415 10.4107 65.2853 10.5865 65.4852 10.8065C65.6852 11.0265 65.837 11.2858 65.9308 11.5679C66.0247 11.85 66.0586 12.1486 66.0303 12.4445C66.0591 12.7407 66.0256 13.0397 65.932 13.3222C65.8384 13.6048 65.6867 13.8646 65.4867 14.085C65.2867 14.3054 65.0427 14.4815 64.7706 14.602C64.4985 14.7226 64.2041 14.7848 63.9065 14.7848C63.6089 14.7848 63.3145 14.7226 63.0424 14.602C62.7703 14.4815 62.5264 14.3054 62.3263 14.085C62.1263 13.8646 61.9746 13.6048 61.881 13.3222C61.7874 13.0397 61.7539 12.7407 61.7827 12.4445ZM65.1157 12.4445C65.1157 11.4684 64.6772 10.8976 63.9077 10.8976C63.1353 10.8976 62.7007 11.4684 62.7007 12.4445C62.7007 13.4284 63.1353 13.9948 63.9077 13.9948C64.6773 13.9948 65.1157 13.4245 65.1157 12.4445H65.1157Z" fill="white"/>
<path d="M66.9658 13.4244C66.9658 12.6139 67.5693 12.1466 68.6406 12.0802L69.8604 12.0099V11.6212C69.8604 11.1456 69.5459 10.8771 68.9385 10.8771C68.4424 10.8771 68.0986 11.0592 68 11.3776H67.1396C67.2305 10.6041 67.958 10.108 68.9795 10.108C70.1084 10.108 70.7451 10.67 70.7451 11.6212V14.6979H69.8896V14.0651H69.8193C69.6766 14.2921 69.4762 14.4771 69.2386 14.6013C69.001 14.7255 68.7346 14.7844 68.4668 14.7721C68.2778 14.7917 68.0867 14.7716 67.9059 14.7129C67.7252 14.6542 67.5587 14.5582 67.4173 14.4313C67.2759 14.3043 67.1627 14.1491 67.0849 13.9757C67.0071 13.8023 66.9666 13.6145 66.9658 13.4244ZM69.8604 13.0397V12.6632L68.7607 12.7335C68.1406 12.775 67.8594 12.986 67.8594 13.3829C67.8594 13.7882 68.2109 14.024 68.6944 14.024C68.836 14.0384 68.9791 14.0241 69.1151 13.982C69.2511 13.9399 69.3773 13.8709 69.486 13.779C69.5948 13.6872 69.684 13.5744 69.7483 13.4474C69.8126 13.3204 69.8507 13.1817 69.8604 13.0397Z" fill="white"/>
<path d="M71.9131 12.4445C71.9131 11.0216 72.6445 10.1203 73.7822 10.1203C74.0636 10.1073 74.3429 10.1747 74.5875 10.3146C74.832 10.4545 75.0316 10.6611 75.1631 10.9103H75.2295V8.43713H76.1182V14.6979H75.2666V13.9864H75.1963C75.0547 14.2339 74.8481 14.438 74.5988 14.5765C74.3496 14.7149 74.0672 14.7826 73.7822 14.7721C72.6367 14.7721 71.9131 13.8707 71.9131 12.4445ZM72.8311 12.4445C72.8311 13.3996 73.2813 13.9743 74.0342 13.9743C74.7832 13.9743 75.2461 13.3913 75.2461 12.4484C75.2461 11.5099 74.7784 10.9186 74.0342 10.9186C73.2861 10.9186 72.8311 11.4972 72.8311 12.4445H72.8311Z" fill="white"/>
<path d="M79.795 12.4445C79.7666 12.1486 79.8005 11.85 79.8943 11.5679C79.9882 11.2858 80.1399 11.0265 80.3399 10.8065C80.5398 10.5865 80.7835 10.4108 81.0554 10.2905C81.3272 10.1702 81.6212 10.1081 81.9185 10.1081C82.2158 10.1081 82.5097 10.1702 82.7816 10.2905C83.0534 10.4108 83.2972 10.5865 83.4971 10.8065C83.697 11.0265 83.8488 11.2858 83.9426 11.5679C84.0365 11.85 84.0703 12.1486 84.042 12.4445C84.0709 12.7407 84.0374 13.0397 83.9438 13.3222C83.8502 13.6047 83.6986 13.8645 83.4986 14.085C83.2986 14.3054 83.0547 14.4815 82.7826 14.602C82.5104 14.7226 82.2161 14.7848 81.9185 14.7848C81.6209 14.7848 81.3265 14.7226 81.0544 14.602C80.7823 14.4815 80.5384 14.3054 80.3384 14.085C80.1384 13.8645 79.9867 13.6047 79.8931 13.3222C79.7996 13.0397 79.7661 12.7407 79.795 12.4445ZM83.128 12.4445C83.128 11.4684 82.6895 10.8976 81.92 10.8976C81.1475 10.8976 80.713 11.4684 80.713 12.4445C80.713 13.4284 81.1475 13.9948 81.92 13.9948C82.6895 13.9948 83.128 13.4245 83.128 12.4445Z" fill="white"/>
<path d="M85.2344 10.1949H86.0898V10.9103H86.1563C86.2689 10.6533 86.4589 10.438 86.6998 10.2942C86.9407 10.1504 87.2204 10.0853 87.5 10.108C87.7191 10.0915 87.9391 10.1246 88.1437 10.2047C88.3483 10.2848 88.5323 10.4099 88.6819 10.5707C88.8316 10.7316 88.9432 10.924 89.0084 11.1338C89.0736 11.3437 89.0908 11.5655 89.0586 11.7828V14.6978H88.1699V12.006C88.1699 11.2823 87.8555 10.9225 87.1982 10.9225C87.0495 10.9155 86.901 10.9409 86.7629 10.9967C86.6249 11.0525 86.5005 11.1375 86.3984 11.2459C86.2963 11.3543 86.2188 11.4835 86.1713 11.6246C86.1237 11.7658 86.1073 11.9155 86.123 12.0636V14.6979H85.2344V10.1949Z" fill="white"/>
<path d="M94.0801 9.07385V10.2155H95.0557V10.964H94.0801V13.2794C94.0801 13.7511 94.2744 13.9576 94.7168 13.9576C94.8301 13.9573 94.9432 13.9504 95.0557 13.9371V14.6774C94.8961 14.7059 94.7344 14.7211 94.5723 14.7228C93.584 14.7228 93.1904 14.3751 93.1904 13.507V10.964H92.4756V10.2154H93.1904V9.07385H94.0801Z" fill="white"/>
<path d="M96.2695 8.43713H97.1504V10.9186H97.2207C97.3388 10.6593 97.5341 10.4427 97.7797 10.2983C98.0254 10.154 98.3097 10.0889 98.5937 10.1119C98.8117 10.1001 99.0295 10.1365 99.2318 10.2185C99.4341 10.3006 99.6158 10.4262 99.7639 10.5866C99.912 10.7469 100.023 10.938 100.089 11.1461C100.155 11.3542 100.174 11.5743 100.144 11.7907V14.6979H99.2549V12.0099C99.2549 11.2906 98.9199 10.9264 98.292 10.9264C98.1393 10.9139 97.9857 10.9349 97.8419 10.9879C97.6981 11.041 97.5677 11.1248 97.4597 11.2335C97.3517 11.3423 97.2687 11.4733 97.2167 11.6174C97.1646 11.7616 97.1447 11.9153 97.1582 12.068V14.6979H96.2696L96.2695 8.43713Z" fill="white"/>
<path d="M105.326 13.4821C105.205 13.8936 104.944 14.2496 104.587 14.4877C104.23 14.7259 103.801 14.831 103.375 14.7848C103.078 14.7926 102.783 14.7358 102.511 14.6183C102.238 14.5008 101.995 14.3253 101.797 14.1042C101.599 13.8831 101.452 13.6215 101.365 13.3377C101.278 13.0539 101.254 12.7546 101.295 12.4606C101.255 12.1657 101.28 11.8658 101.366 11.5811C101.453 11.2964 101.599 11.0337 101.796 10.8106C101.993 10.5875 102.235 10.4093 102.507 10.2881C102.779 10.1669 103.073 10.1055 103.371 10.108C104.624 10.108 105.38 10.964 105.38 12.378V12.6881H102.2V12.7379C102.186 12.9032 102.207 13.0695 102.261 13.2263C102.315 13.383 102.401 13.5267 102.514 13.6482C102.627 13.7696 102.764 13.8662 102.917 13.9316C103.069 13.9969 103.234 14.0298 103.399 14.0279C103.612 14.0535 103.827 14.0152 104.018 13.918C104.209 13.8208 104.366 13.669 104.471 13.482L105.326 13.4821ZM102.2 12.0309H104.474C104.486 11.8798 104.465 11.728 104.414 11.5853C104.363 11.4425 104.283 11.3121 104.179 11.2022C104.074 11.0923 103.948 11.0055 103.808 10.9474C103.668 10.8892 103.518 10.8609 103.366 10.8644C103.212 10.8625 103.06 10.8913 102.917 10.9493C102.775 11.0072 102.646 11.0931 102.537 11.2018C102.428 11.3105 102.343 11.4399 102.285 11.5823C102.227 11.7247 102.198 11.8772 102.2 12.0309H102.2Z" fill="white"/>
</g>
<defs>
<clipPath id="clip0_1129_28">
<rect width="119.664" height="40" fill="white" transform="translate(0.564941 0.00012207)"/>
</clipPath>
</defs>
</svg>
